HIERARCHY
ROOT Hips
{
	OFFSET 0.000000 71.427986 0.000000
	CHANNELS 6 Xposition Yposition Zposition Xrotation Yrotation Zrotation
	JOINT Pelvis
	{
		OFFSET 0.000000 0.000000 0.000000
		CHANNELS 3 Xrotation Yrotation Zrotation
		JOINT LeftUpLeg
		{
			OFFSET 6.797100 -2.508499 -1.318700
			CHANNELS 3 Xrotation Yrotation Zrotation
			JOINT LeftLeg
			{
				OFFSET 0.069008 -29.241863 0.690200
				CHANNELS 3 Xrotation Yrotation Zrotation
				JOINT LeftFoot
				{
					OFFSET -0.069008 -29.568123 -0.266800
					CHANNELS 3 Xrotation Yrotation Zrotation
					JOINT LeftToeBase
					{
						OFFSET 3.145500 -8.631000 16.059900
						CHANNELS 3 Xrotation Yrotation Zrotation
						End Site
						{
							OFFSET 0.000000 18.501587 0.000000
						}
					}
				}
			}
			JOINT Left_ShortSleeve
			{
				OFFSET 0.265923 -10.480953 1.153800
				CHANNELS 3 Xrotation Yrotation Zrotation
				End Site
				{
					OFFSET 1.725763 19.823879 0.000000
				}
			}
		}
		JOINT RightUpLeg
		{
			OFFSET -6.797100 -2.508499 -1.318700
			CHANNELS 3 Xrotation Yrotation Zrotation
			JOINT RightLeg
			{
				OFFSET -0.082453 -29.241932 0.688000
				CHANNELS 3 Xrotation Yrotation Zrotation
				JOINT RightFoot
				{
					OFFSET 0.082453 -29.568058 -0.264600
					CHANNELS 3 Xrotation Yrotation Zrotation
					JOINT RightToeBase
					{
						OFFSET -3.115300 -8.682800 16.113400
						CHANNELS 3 Xrotation Yrotation Zrotation
						End Site
						{
							OFFSET 0.000000 18.567114 0.000000
						}
					}
				}
			}
			JOINT Right_ShortSleeve
			{
				OFFSET -0.265923 -10.480953 1.153800
				CHANNELS 3 Xrotation Yrotation Zrotation
				End Site
				{
					OFFSET -1.725766 19.823910 0.000000
				}
			}
		}
	}
	JOINT Spine
	{
		OFFSET 0.000000 13.368103 0.470500
		CHANNELS 3 Xrotation Yrotation Zrotation
		JOINT Spine1
		{
			OFFSET 0.147000 13.837402 0.538800
			CHANNELS 3 Xrotation Yrotation Zrotation
			JOINT Spine2
			{
				OFFSET 0.168000 16.242897 -1.435500
				CHANNELS 3 Xrotation Yrotation Zrotation
				JOINT Neck
				{
					OFFSET 0.217200 18.631500 -1.679100
					CHANNELS 3 Xrotation Yrotation Zrotation
					JOINT Head
					{
						OFFSET 0.000000 6.599396 1.385900
						CHANNELS 3 Xrotation Yrotation Zrotation
						JOINT Hat
						{
							OFFSET -0.532200 27.220596 -10.096100
							CHANNELS 3 Xrotation Yrotation Zrotation
							End Site
							{
								OFFSET 0.000000 22.029861 0.000000
							}
						}
						JOINT HairD
						{
							OFFSET -10.777400 17.437393 -1.325900
							CHANNELS 3 Xrotation Yrotation Zrotation
							JOINT HairD1
							{
								OFFSET -3.290299 -11.051193 1.062200
								CHANNELS 3 Xrotation Yrotation Zrotation
								End Site
								{
									OFFSET 0.000000 11.579437 0.000000
								}
							}
						}
						JOINT HairB
						{
							OFFSET -10.777400 17.437393 1.467900
							CHANNELS 3 Xrotation Yrotation Zrotation
							JOINT HairB1
							{
								OFFSET -1.561200 -12.956299 3.590200
								CHANNELS 3 Xrotation Yrotation Zrotation
								End Site
								{
									OFFSET 0.000000 13.534866 0.000000
								}
							}
						}
						JOINT HairA
						{
							OFFSET 9.713100 17.437393 1.467900
							CHANNELS 3 Xrotation Yrotation Zrotation
							JOINT HairA1
							{
								OFFSET 1.561200 -12.956299 3.590200
								CHANNELS 3 Xrotation Yrotation Zrotation
								End Site
								{
									OFFSET 0.000000 13.534866 0.000000
								}
							}
						}
						JOINT HairC
						{
							OFFSET 9.713100 17.437393 -1.325900
							CHANNELS 3 Xrotation Yrotation Zrotation
							JOINT HairC1
							{
								OFFSET 3.290300 -11.051193 1.062200
								CHANNELS 3 Xrotation Yrotation Zrotation
								End Site
								{
									OFFSET 0.000000 11.579437 0.000000
								}
							}
						}
					}
				}
				JOINT LeftShoulder
				{
					OFFSET 5.101800 15.108002 -2.763700
					CHANNELS 3 Xrotation Yrotation Zrotation
					JOINT LeftArm
					{
						OFFSET 9.825497 2.506317 -1.597400
						CHANNELS 3 Xrotation Yrotation Zrotation
						JOINT LeftForeArm
						{
							OFFSET 21.966244 0.000000 0.000000
							CHANNELS 3 Xrotation Yrotation Zrotation
							JOINT LeftHand
							{
								OFFSET 33.879036 0.000000 0.000000
								CHANNELS 3 Xrotation Yrotation Zrotation
								JOINT LeftHandThumb1
								{
									OFFSET 6.715286 -2.359680 3.363841
									CHANNELS 3 Xrotation Yrotation Zrotation
									JOINT LeftHandThumb2
									{
										OFFSET 2.507072 -1.447464 1.447461
										CHANNELS 3 Xrotation Yrotation Zrotation
										JOINT LeftHandThumb3
										{
											OFFSET 2.898338 -1.673355 1.673357
											CHANNELS 3 Xrotation Yrotation Zrotation
											End Site
											{
												OFFSET -0.295959 3.727692 -0.131651
											}
										}
									}
								}
								JOINT LeftHandIndex1
								{
									OFFSET 14.190811 -0.254547 3.840278
									CHANNELS 3 Xrotation Yrotation Zrotation
									JOINT LeftHandIndex2
									{
										OFFSET 3.551727 0.000000 -0.000000
										CHANNELS 3 Xrotation Yrotation Zrotation
										JOINT LeftHandIndex3
										{
											OFFSET 2.894196 0.000000 0.000000
											CHANNELS 3 Xrotation Yrotation Zrotation
											End Site
											{
												OFFSET -1.000603 2.690872 0.366626
											}
										}
									}
								}
								JOINT LeftHandMiddle1
								{
									OFFSET 13.776489 0.000000 0.000000
									CHANNELS 3 Xrotation Yrotation Zrotation
									JOINT LeftHandMiddle2
									{
										OFFSET 3.438232 0.000000 0.000000
										CHANNELS 3 Xrotation Yrotation Zrotation
										JOINT LeftHandMiddle3
										{
											OFFSET 3.691551 0.000000 0.000000
											CHANNELS 3 Xrotation Yrotation Zrotation
											End Site
											{
												OFFSET -1.082298 3.499527 0.457670
											}
										}
									}
								}
								JOINT LeftHandRing1
								{
									OFFSET 13.966164 -0.268127 -3.067488
									CHANNELS 3 Xrotation Yrotation Zrotation
									JOINT LeftHandRing2
									{
										OFFSET 3.162567 0.000000 0.000000
										CHANNELS 3 Xrotation Yrotation Zrotation
										JOINT LeftHandRing3
										{
											OFFSET 3.324348 0.000000 0.000000
											CHANNELS 3 Xrotation Yrotation Zrotation
											End Site
											{
												OFFSET -0.861900 3.184998 0.405154
											}
										}
									}
								}
								JOINT LeftHandPinky1
								{
									OFFSET 13.131393 -0.168503 -5.746925
									CHANNELS 3 Xrotation Yrotation Zrotation
									JOINT LeftHandPinky2
									{
										OFFSET 2.849182 0.000000 0.000000
										CHANNELS 3 Xrotation Yrotation Zrotation
										JOINT LeftHandPinky3
										{
											OFFSET 2.805038 0.000000 0.000000
											CHANNELS 3 Xrotation Yrotation Zrotation
											End Site
											{
												OFFSET -0.882500 2.642609 0.325652
											}
										}
									}
								}
							}
							JOINT Left_Sleeve
							{
								OFFSET 6.592125 -0.646545 0.805568
								CHANNELS 3 Xrotation Yrotation Zrotation
								End Site
								{
									OFFSET -0.000179 20.275787 -0.000000
								}
							}
						}
					}
				}
				JOINT RightShoulder
				{
					OFFSET -5.731700 15.108002 -2.763700
					CHANNELS 3 Xrotation Yrotation Zrotation
					JOINT RightArm
					{
						OFFSET -9.825497 2.506317 -1.597400
						CHANNELS 3 Xrotation Yrotation Zrotation
						JOINT RightForeArm
						{
							OFFSET -21.966242 0.000000 0.000000
							CHANNELS 3 Xrotation Yrotation Zrotation
							JOINT RightHand
							{
								OFFSET -33.879032 0.000000 0.000000
								CHANNELS 3 Xrotation Yrotation Zrotation
								JOINT RightHandThumb1
								{
									OFFSET -6.715286 -2.359680 3.363841
									CHANNELS 3 Xrotation Yrotation Zrotation
									JOINT RightHandThumb2
									{
										OFFSET -2.507072 -1.447464 1.447461
										CHANNELS 3 Xrotation Yrotation Zrotation
										JOINT RightHandThumb3
										{
											OFFSET -2.898338 -1.673355 1.673357
											CHANNELS 3 Xrotation Yrotation Zrotation
											End Site
											{
												OFFSET 0.295959 3.727692 -0.131651
											}
										}
									}
								}
								JOINT RightHandIndex1
								{
									OFFSET -14.190811 -0.254547 3.840278
									CHANNELS 3 Xrotation Yrotation Zrotation
									JOINT RightHandIndex2
									{
										OFFSET -3.551727 0.000000 -0.000000
										CHANNELS 3 Xrotation Yrotation Zrotation
										JOINT RightHandIndex3
										{
											OFFSET -2.894196 0.000000 0.000000
											CHANNELS 3 Xrotation Yrotation Zrotation
											End Site
											{
												OFFSET 1.000603 2.690872 0.366626
											}
										}
									}
								}
								JOINT RightHandMiddle1
								{
									OFFSET -13.776489 0.000000 0.000000
									CHANNELS 3 Xrotation Yrotation Zrotation
									JOINT RightHandMiddle2
									{
										OFFSET -3.438232 0.000000 0.000000
										CHANNELS 3 Xrotation Yrotation Zrotation
										JOINT RightHandMiddle3
										{
											OFFSET -3.691551 0.000000 0.000000
											CHANNELS 3 Xrotation Yrotation Zrotation
											End Site
											{
												OFFSET 1.082298 3.499527 0.457670
											}
										}
									}
								}
								JOINT RightHandRing1
								{
									OFFSET -13.966164 -0.268127 -3.067488
									CHANNELS 3 Xrotation Yrotation Zrotation
									JOINT RightHandRing2
									{
										OFFSET -3.162567 0.000000 0.000000
										CHANNELS 3 Xrotation Yrotation Zrotation
										JOINT RightHandRing3
										{
											OFFSET -3.324348 0.000000 0.000000
											CHANNELS 3 Xrotation Yrotation Zrotation
											End Site
											{
												OFFSET 0.861900 3.184998 0.405154
											}
										}
									}
								}
								JOINT RightHandPinky1
								{
									OFFSET -13.131393 -0.168503 -5.746925
									CHANNELS 3 Xrotation Yrotation Zrotation
									JOINT RightHandPinky2
									{
										OFFSET -2.849182 0.000000 0.000000
										CHANNELS 3 Xrotation Yrotation Zrotation
										JOINT RightHandPinky3
										{
											OFFSET -2.805038 0.000000 0.000000
											CHANNELS 3 Xrotation Yrotation Zrotation
											End Site
											{
												OFFSET 0.882500 2.642609 0.325652
											}
										}
									}
								}
							}
							JOINT Right_Sleeve
							{
								OFFSET -6.592125 -0.646545 0.805568
								CHANNELS 3 Xrotation Yrotation Zrotation
								End Site
								{
									OFFSET 0.000179 20.275787 -0.000000
								}
							}
						}
					}
				}
				JOINT Bind_Right_JacketString
				{
					OFFSET -3.534800 11.969597 7.200700
					CHANNELS 3 Xrotation Yrotation Zrotation
					JOINT Bind_Right_JacketString1
					{
						OFFSET -0.319900 -6.102600 2.794100
						CHANNELS 3 Xrotation Yrotation Zrotation
						End Site
						{
							OFFSET 0.000000 6.719452 0.000000
						}
					}
				}
				JOINT Bind_Left_JacketString
				{
					OFFSET 2.904800 11.969597 7.200700
					CHANNELS 3 Xrotation Yrotation Zrotation
					JOINT Bind_Left_JacketString1
					{
						OFFSET 0.364800 -5.904503 3.186800
						CHANNELS 3 Xrotation Yrotation Zrotation
						End Site
						{
							OFFSET 0.000000 6.719513 0.000000
						}
					}
				}
				JOINT HairE
				{
					OFFSET 5.915200 17.612701 -11.592200
					CHANNELS 3 Xrotation Yrotation Zrotation
					JOINT HairE1
					{
						OFFSET 0.289200 -7.171898 -1.284500
						CHANNELS 3 Xrotation Yrotation Zrotation
						End Site
						{
							OFFSET 0.000000 7.291756 0.000000
						}
					}
				}
				JOINT HairF
				{
					OFFSET -0.864800 17.612701 -11.592200
					CHANNELS 3 Xrotation Yrotation Zrotation
					JOINT HairF1
					{
						OFFSET 0.000000 -14.087097 -2.127501
						CHANNELS 3 Xrotation Yrotation Zrotation
						End Site
						{
							OFFSET 0.000000 14.246841 0.000000
						}
					}
				}
				JOINT HairG
				{
					OFFSET -8.087700 17.612701 -11.592200
					CHANNELS 3 Xrotation Yrotation Zrotation
					JOINT HairG1
					{
						OFFSET -0.293600 -6.081398 -0.910100
						CHANNELS 3 Xrotation Yrotation Zrotation
						End Site
						{
							OFFSET 0.000000 6.156120 0.000000
						}
					}
				}
			}
		}
	}
	JOINT Pouch
	{
		OFFSET 0.000000 4.394501 10.847300
		CHANNELS 3 Xrotation Yrotation Zrotation
		End Site
		{
			OFFSET 0.000000 21.880577 0.000000
		}
	}
	JOINT Bag
	{
		OFFSET -13.229000 4.813004 -0.593300
		CHANNELS 3 Xrotation Yrotation Zrotation
		End Site
		{
			OFFSET 0.000000 21.880577 0.000000
		}
	}
	JOINT OccupyGuyFacialAnim_Joint
	{
		OFFSET 1.000000 -70.206398 -1.655000
		CHANNELS 3 Xrotation Yrotation Zrotation
		End Site
		{
			OFFSET 0.000000 21.880577 0.000000
		}
	}
}
MOTION
Frames: 4
Frame Time: 0.033333
-0.409175 65.226433 0.049148 4.997579 -65.214428 6.085268 -0.000000 0.000001 -0.000000 -29.548525 15.609904 23.504766 34.932763 -4.578360 1.595148 -10.182788 -1.853864 -16.323191 -0.000000 -0.000001 0.000000 -0.000001 0.000001 0.000000 -26.510664 -22.412152 -30.643999 32.572332 6.467702 -3.978792 -12.563300 1.941945 21.077764 0.000000 0.000000 -0.000000 -0.000002 -0.000001 -0.000001 13.830359 0.272087 -2.369200 5.488394 0.921743 -1.601443 5.511769 0.868565 -1.624267 -3.089617 1.327558 3.570148 -17.613834 55.062024 1.045154 0.000000 0.000000 -0.000000 0.000000 0.000000 -0.000000 0.000000 0.000000 -0.000000 0.000000 0.000000 -0.000000 0.000000 0.000000 -0.000000 0.000000 0.000000 -0.000000 0.000000 0.000000 -0.000000 0.000000 0.000000 -0.000000 0.000000 0.000000 -0.000000 1.950952 -2.060789 -11.512002 -27.510629 25.522887 -42.543937 3.876345 -63.565845 3.997626 -2.092208 13.604273 1.242916 40.109944 -15.297117 -0.360494 5.639838 28.097908 11.338836 -0.000000 0.000002 -0.000002 6.882260 2.840079 -61.140404 8.247971 7.640034 -89.897857 0.000003 0.000002 0.000002 -2.345501 4.688879 -62.655197 8.754141 9.897069 -87.051294 -0.000001 0.000002 -0.000001 -9.042462 10.045644 -60.766171 8.524094 9.508833 -66.893035 0.000001 0.000002 -0.000001 -17.946904 14.755012 -51.485846 8.868441 8.667054 -84.811968 -0.000001 -0.000001 0.000004 -0.000002 -0.000000 0.000001 0.703762 6.498367 8.823489 7.477621 -13.177651 47.295406 -29.442131 49.696149 26.701948 -9.562166 18.888444 -9.044742 -2.338854 -6.094285 10.727452 2.364061 -23.806297 -8.771064 -0.000002 0.000000 0.000002 0.327209 3.253806 -16.717008 0.158773 -1.028093 11.624200 0.000005 0.000000 0.000002 0.325165 -5.170573 -2.003900 1.025931 -3.122950 16.857160 0.000000 0.000000 -0.000003 1.206493 -11.761094 4.155038 1.791649 -3.785614 26.863962 -0.000001 -0.000000 -0.000004 2.141373 -19.167845 11.324523 3.347457 -2.126463 18.828163 0.000003 0.000001 0.000001 0.000002 -0.000000 0.000001 0.000000 -0.000000 0.000000 0.000001 0.000001 -0.000001 0.000000 -0.000000 -0.000000 0.000000 -0.000000 -0.000000 0.000000 -0.000000 0.000000 0.000001 0.000001 -0.000001 0.000000 -0.000000 -0.000000 0.000000 -0.000000 -0.000000 0.000000 -0.000000 0.000000 0.000001 0.000001 -0.000001 -0.000000 0.000001 -0.000000 -0.000000 0.000001 -0.000000 -0.000000 0.000001 -0.000000 
-0.286327 65.089127 0.620876 5.591351 -65.064983 6.600223 0.000000 0.000000 -0.000000 -30.326026 15.354499 23.223335 36.304593 -4.497612 1.562867 -10.671729 -2.223229 -15.855476 0.000000 -0.000000 -0.000000 -0.000002 0.000001 0.000001 -26.545537 -22.557962 -31.023334 31.765379 5.929026 -3.981530 -12.056208 2.475087 21.224092 -0.000000 -0.000000 0.000000 0.000000 0.000000 -0.000003 13.683693 0.385309 -2.765821 5.467243 0.991138 -1.759377 5.489560 0.939562 -1.783924 -3.155692 1.328697 3.645081 -18.282514 54.896269 1.450231 -0.000000 -0.000000 0.000000 -0.000000 -0.000000 0.000000 -0.000000 -0.000000 -0.000000 -0.000000 -0.000000 0.000000 -0.000000 0.000000 0.000000 -0.000000 -0.000000 0.000000 -0.000000 0.000000 0.000000 -0.000000 -0.000000 0.000000 -0.000000 -0.000000 0.000000 1.967169 -2.119277 -11.687938 -28.803751 25.411698 -41.627923 2.905902 -59.742456 2.951658 -3.037337 10.740103 1.357539 40.109948 -15.297119 -0.360497 5.639830 28.097908 11.338838 -0.000000 -0.000001 0.000002 6.882257 2.840079 -61.140411 8.247973 7.640037 -89.897857 0.000001 -0.000001 0.000001 -2.345506 4.688883 -62.655204 8.754141 9.897067 -87.051294 0.000000 0.000003 -0.000002 -9.042460 10.045648 -60.766171 8.524091 9.508837 -66.893035 -0.000002 -0.000000 -0.000003 -17.946913 14.755013 -51.485843 8.868442 8.667059 -84.811968 -0.000002 -0.000004 0.000002 0.000001 0.000001 -0.000003 0.678438 6.589005 8.961493 6.648780 -12.207595 48.139078 -26.412396 43.931251 22.633241 -12.862667 16.712764 -9.745421 -2.338898 -6.094325 10.727454 2.364059 -23.806297 -8.771063 -0.000001 0.000000 -0.000000 0.276661 3.082783 -15.562333 0.137477 -0.921358 10.875315 -0.000004 -0.000001 -0.000002 0.327016 -5.218441 -1.700781 1.046069 -3.193990 17.331882 -0.000004 -0.000000 0.000001 1.206512 -11.761109 4.155044 1.791648 -3.785603 26.863943 0.000001 0.000000 0.000002 2.141380 -19.167855 11.324526 3.347470 -2.126461 18.828178 -0.000002 0.000002 -0.000003 -0.000002 -0.000003 0.000002 -0.000001 0.000001 -0.000000 -0.000001 -0.000001 0.000001 -0.000001 0.000001 -0.000001 -0.000001 0.000001 -0.000001 -0.000001 0.000001 -0.000000 -0.000001 -0.000001 0.000001 -0.000001 0.000001 -0.000001 -0.000001 0.000001 -0.000001 -0.000001 0.000001 -0.000000 -0.000001 -0.000001 0.000001 0.000000 0.000000 -0.000000 0.000000 0.000000 -0.000000 0.000000 0.000000 -0.000000 
-0.157111 64.959793 1.009220 6.232364 -64.621144 7.110380 0.000000 0.000001 -0.000000 -31.161591 14.980524 22.969610 37.301890 -4.221511 1.553679 -10.875981 -2.932972 -15.532149 -0.000000 -0.000002 0.000000 0.000000 0.000001 0.000001 -26.594175 -22.496884 -31.288799 31.460842 5.719795 -3.992047 -11.837966 2.260906 21.736020 0.000000 -0.000000 -0.000000 -0.000000 0.000000 -0.000002 13.708482 0.353974 -3.138449 5.515134 1.001874 -1.946618 5.538366 0.948568 -1.973243 -3.268264 1.334184 3.712300 -19.009786 54.732133 1.806591 0.000000 -0.000000 -0.000000 0.000000 -0.000000 -0.000000 0.000000 -0.000000 -0.000000 0.000000 -0.000000 -0.000000 0.000000 -0.000000 -0.000000 0.000000 -0.000000 -0.000000 0.000000 -0.000000 -0.000000 0.000000 -0.000000 -0.000000 0.000000 -0.000000 -0.000000 1.972744 -2.217997 -11.844112 -30.252018 25.145866 -40.642907 2.139802 -56.186502 2.136090 -4.231832 8.037152 1.338069 40.109938 -15.297120 -0.360495 5.639833 28.097906 11.338841 0.000000 -0.000000 -0.000000 6.882262 2.840079 -61.140411 8.247968 7.640034 -89.897857 0.000002 -0.000002 -0.000004 -2.345499 4.688880 -62.655204 8.754142 9.897068 -87.051294 0.000001 -0.000000 0.000001 -9.042460 10.045646 -60.766171 8.524092 9.508831 -66.893035 0.000001 0.000002 0.000000 -17.946908 14.755013 -51.485836 8.868447 8.667056 -84.811968 -0.000000 0.000000 0.000003 -0.000002 0.000001 -0.000001 0.666927 6.667057 9.011104 6.150366 -11.503254 49.055170 -24.560307 39.434975 19.971591 -15.949830 14.995050 -10.614027 -2.338821 -6.094296 10.727441 2.364060 -23.806290 -8.771060 -0.000001 0.000001 0.000001 0.206983 2.822072 -13.818831 0.116510 -0.808719 10.086712 0.000003 0.000003 0.000003 0.327552 -5.290791 -1.243170 1.078847 -3.302980 18.048770 0.000001 0.000001 -0.000001 1.206522 -11.761085 4.155044 1.791638 -3.785557 26.863890 -0.000001 -0.000001 0.000001 2.141388 -19.167821 11.324515 3.347430 -2.126476 18.828183 -0.000001 0.000001 -0.000003 -0.000002 -0.000001 -0.000001 0.000001 0.000000 0.000001 0.000002 -0.000000 -0.000001 0.000001 0.000000 0.000000 0.000001 0.000000 0.000000 0.000001 0.000000 0.000001 0.000002 -0.000000 -0.000000 0.000001 0.000000 0.000000 0.000001 0.000000 0.000000 0.000001 0.000000 0.000001 0.000002 -0.000000 -0.000000 0.000000 0.000001 -0.000000 0.000000 0.000001 -0.000000 0.000000 0.000001 -0.000000 
-0.047430 64.845901 1.184881 6.888804 -64.015313 7.608228 -0.000000 0.000000 0.000000 -31.963912 14.528839 22.841223 37.920275 -5.331638 1.435062 -10.797749 -2.369141 -15.034355 -0.000000 -0.000002 -0.000000 0.000000 0.000001 0.000001 -26.763364 -22.402404 -31.430348 31.641391 6.505838 -3.929617 -11.842426 0.888890 21.786256 0.000000 -0.000000 -0.000000 0.000002 -0.000000 -0.000002 13.829324 0.246555 -3.470246 5.558664 0.946796 -2.144068 5.581793 0.900031 -2.174507 -3.365526 1.344866 3.762785 -19.696066 54.562061 2.101608 -0.000000 0.000000 -0.000001 -0.000000 0.000000 -0.000001 -0.000000 0.000000 -0.000001 -0.000000 0.000000 -0.000001 -0.000000 0.000000 -0.000000 -0.000000 0.000000 -0.000001 -0.000000 0.000000 -0.000000 -0.000000 0.000000 -0.000001 -0.000000 0.000000 -0.000001 1.940458 -2.476832 -11.969206 -31.947540 24.948763 -39.411923 1.452633 -52.788415 1.424705 -5.526925 5.199501 1.081301 40.109944 -15.297117 -0.360500 5.639837 28.097908 11.338833 -0.000000 0.000001 0.000004 6.882261 2.840081 -61.140411 8.247972 7.640036 -89.897857 0.000000 0.000002 -0.000003 -2.345499 4.688885 -62.655204 8.754141 9.897064 -87.051294 0.000001 0.000002 0.000001 -9.042458 10.045651 -60.766171 8.524097 9.508832 -66.893029 -0.000005 -0.000003 -0.000000 -17.946908 14.755015 -51.485846 8.868443 8.667059 -84.811968 0.000002 0.000001 0.000001 0.000002 -0.000001 -0.000000 0.656336 6.759475 9.043456 6.123130 -11.065741 50.096081 -23.333680 36.394024 18.271026 -18.801875 13.314112 -12.168280 -2.338850 -6.094291 10.727448 2.364057 -23.806295 -8.771061 -0.000000 0.000001 0.000006 0.130755 2.490266 -11.634610 0.096393 -0.691454 9.268445 0.000000 0.000000 0.000000 0.328249 -5.381714 -0.669478 1.123817 -3.441052 18.947368 -0.000003 0.000000 -0.000001 1.206550 -11.761086 4.155054 1.791607 -3.785561 26.863940 -0.000001 -0.000000 0.000001 2.141392 -19.167814 11.324517 3.347473 -2.126474 18.828130 -0.000001 0.000000 -0.000001 0.000002 -0.000000 0.000001 0.000002 0.000001 -0.000001 -0.000001 -0.000002 -0.000001 0.000002 0.000001 -0.000002 0.000002 0.000001 -0.000002 0.000002 0.000001 -0.000001 -0.000001 -0.000002 -0.000000 0.000002 0.000001 -0.000002 0.000002 0.000001 -0.000002 0.000002 0.000001 -0.000001 -0.000001 -0.000002 -0.000000 -0.000000 0.000000 0.000000 -0.000000 0.000000 0.000000 -0.000000 0.000000 0.000000 
